<svg width="1200" height="630" xmlns="http://www.w3.org/2000/svg">
  <!-- Background -->
  <rect width="1200" height="630" fill="#25832B"/>
  
  <!-- White card -->
  <rect x="100" y="115" width="1000" height="400" rx="30" fill="white"/>
  
  <!-- Globe icon -->
  <circle cx="600" cy="220" r="40" fill="#25832B"/>
  <path d="M600 180c-22.1 0-40 17.9-40 40s17.9 40 40 40 40-17.9 40-40-17.9-40-40-40zm-4 71.7c-15.8-2-28-15.4-28-31.7 0-2.5.3-4.8.8-7.2l12 12v4c0 4.4 3.6 8 8 8v7.7zm27.6-10.2c-1-3.2-4-5.6-7.6-5.6h-4v-12c0-2.2-1.8-4-4-4h-16v-8h8c2.2 0 4-1.8 4-4v-8h8c4.4 0 8-3.6 8-8v-1.6c11.7 4.8 20 16.2 20 29.6 0 8.3-3.2 15.9-8.4 21.6z" fill="white"/>
  
  <!-- Title -->
  <text x="600" y="320" font-family="Arial, sans-serif" font-size="56" font-weight="bold" fill="#000" text-anchor="middle">
    Teach AI to speak your language
  </text>
  
  <!-- Description -->
  <text x="600" y="380" font-family="Arial, sans-serif" font-size="28" fill="#666" text-anchor="middle">
    Contribute your voice in 10 minutes • Get paid
  </text>
  
  <!-- Badge -->
  <rect x="490" y="430" width="220" height="50" rx="25" fill="#25832B"/>
  <text x="600" y="463" font-family="Arial, sans-serif" font-size="24" font-weight="bold" fill="white" text-anchor="middle">
    Download App
  </text>
</svg>
