<svg xmlns="http://www.w3.org/2000/svg" viewBox="0 0 2000 1001" opacity="0.03">
  <path fill="#25832B" d="M349.7,441.2l-1.3-2.8l-4.5-0.6l-2.5,1.5l-1.9,2.3l-2.8,1.3l-3.2-0.2l-2.4-1.5l-1.5-2.8l-0.9-3.4l0.6-3.2l1.9-2.6l2.8-1.5l3.4-0.2l3.2,0.9l2.6,1.9l1.5,2.8l0.2,3.2L349.7,441.2z M1135.5,648.7l-2.8-1.3l-3.2,0.2l-2.8,1.3l-1.9,2.6l-0.6,3.2l0.9,3.2l1.9,2.6l2.8,1.5l3.4,0.2l2.8-0.9l2.3-1.9l1.3-2.8l0.2-3.2l-0.9-3.2L1135.5,648.7z M1468.8,268.3l-3.4-0.9l-3.2,0.6l-2.6,1.9l-1.5,2.8l-0.2,3.4l0.9,3.2l1.9,2.6l2.8,1.5l3.4,0.2l2.8-0.9l2.3-1.9l1.3-2.8l0.2-3.2l-0.9-3.2L1468.8,268.3z M1722.3,346.8l-2.8-1.3l-3.4,0.2l-2.8,1.3l-1.9,2.6l-0.6,3.2l0.9,3.2l1.9,2.6l2.8,1.5l3.2,0.2l2.8-0.9l2.3-1.9l1.3-2.8l0.2-3.4l-0.9-3.2L1722.3,346.8z"/>
  <!-- Simplified world map continents -->
  <path fill="#25832B" d="M400,200 L500,180 L600,200 L650,250 L700,240 L750,280 L720,320 L680,350 L650,380 L600,370 L550,350 L500,360 L450,340 L420,300 L400,250 Z"/>
  <path fill="#25832B" d="M200,300 L280,280 L350,300 L380,350 L360,400 L320,430 L280,420 L240,400 L200,360 Z"/>
  <path fill="#25832B" d="M300,500 L350,480 L400,500 L420,550 L400,600 L380,650 L350,680 L320,660 L300,620 L280,570 L290,520 Z"/>
  <path fill="#25832B" d="M1200,300 L1300,280 L1400,290 L1450,320 L1480,360 L1460,400 L1420,430 L1380,440 L1340,420 L1300,400 L1260,380 L1220,350 Z"/>
  <path fill="#25832B" d="M1300,450 L1350,440 L1400,450 L1430,480 L1440,520 L1420,560 L1390,580 L1350,570 L1320,540 L1300,500 Z"/>
  <path fill="#25832B" d="M1500,600 L1580,590 L1620,610 L1640,650 L1630,690 L1600,710 L1560,700 L1530,670 L1510,630 Z"/>
  <path fill="#25832B" d="M800,220 L900,200 L980,220 L1020,260 L1040,300 L1020,340 L980,370 L930,380 L880,360 L840,330 L810,290 Z"/>
  <path fill="#25832B" d="M900,400 L950,390 L1000,410 L1020,450 L1000,490 L960,510 L920,500 L890,470 L880,430 Z"/>
</svg>
