<svg xmlns="http://www.w3.org/2000/svg" viewBox="0 0 2000 1000">
  <defs>
    <style>
      .map { fill: #d4d4d4; opacity: 0.15; }
    </style>
  </defs>
  <!-- Simplified world map continents -->
  <!-- North America -->
  <path class="map" d="M150,150 L200,120 L280,130 L320,150 L350,180 L360,220 L350,260 L330,300 L310,340 L280,360 L250,350 L220,330 L180,280 L160,240 L150,200 Z"/>
  <path class="map" d="M200,140 L280,100 L320,110 L350,130 L360,150 L340,180 L320,200 L280,190 L240,170 L220,150 Z"/>
  <path class="map" d="M280,350 L320,340 L340,360 L350,390 L340,420 L320,440 L300,430 L290,400 L280,370 Z"/>

  <!-- South America -->
  <path class="map" d="M340,450 L380,440 L410,460 L430,490 L440,530 L450,580 L440,630 L420,670 L390,690 L360,680 L340,650 L330,610 L325,570 L330,520 L335,480 Z"/>

  <!-- Europe -->
  <path class="map" d="M950,180 L1000,170 L1050,180 L1080,200 L1090,220 L1080,250 L1050,270 L1010,280 L970,270 L940,250 L930,220 Z"/>
  <path class="map" d="M1000,190 L1040,180 L1070,190 L1080,210 L1070,230 L1040,240 L1010,230 L1000,210 Z"/>

  <!-- Africa -->
  <path class="map" d="M950,290 L1000,280 L1050,290 L1090,310 L1120,350 L1130,400 L1120,450 L1100,500 L1070,540 L1030,560 L990,550 L960,530 L940,490 L930,440 L935,390 L945,330 Z"/>

  <!-- Asia -->
  <path class="map" d="M1100,150 L1200,140 L1300,150 L1400,160 L1500,180 L1580,200 L1620,220 L1640,250 L1630,280 L1600,310 L1550,330 L1500,340 L1450,330 L1400,310 L1350,290 L1300,270 L1250,250 L1200,230 L1150,210 L1110,180 Z"/>
  <path class="map" d="M1200,340 L1280,330 L1350,340 L1400,360 L1430,390 L1440,430 L1420,470 L1380,490 L1340,480 L1300,460 L1260,430 L1230,390 L1210,360 Z"/>
  <path class="map" d="M1450,350 L1520,340 L1580,350 L1620,380 L1640,420 L1630,460 L1600,490 L1560,500 L1520,490 L1480,470 L1460,440 L1450,400 Z"/>
  <path class="map" d="M1500,490 L1560,480 L1600,490 L1620,520 L1620,560 L1600,590 L1570,600 L1540,590 L1520,560 L1510,520 Z"/>

  <!-- Australia -->
  <path class="map" d="M1550,650 L1620,640 L1680,650 L1720,680 L1730,720 L1720,760 L1690,780 L1650,770 L1610,750 L1580,720 L1560,690 Z"/>

  <!-- Additional details -->
  <!-- Japan -->
  <path class="map" d="M1680,280 L1710,270 L1730,280 L1740,310 L1730,340 L1710,350 L1690,340 L1680,310 Z"/>

  <!-- UK -->
  <path class="map" d="M920,190 L940,185 L950,195 L945,210 L930,215 L920,205 Z"/>

  <!-- Scandinavia -->
  <path class="map" d="M1000,100 L1020,90 L1040,95 L1050,110 L1060,140 L1050,160 L1030,165 L1010,155 L1000,130 Z"/>

  <!-- Middle East -->
  <path class="map" d="M1100,280 L1150,270 L1190,285 L1210,310 L1200,340 L1170,350 L1140,340 L1110,320 L1100,300 Z"/>

  <!-- India -->
  <path class="map" d="M1350,380 L1390,370 L1420,390 L1435,420 L1430,460 L1410,490 L1380,500 L1360,490 L1345,460 L1340,420 L1345,390 Z"/>

  <!-- Indonesia -->
  <path class="map" d="M1500,530 L1550,525 L1590,535 L1610,555 L1600,575 L1570,585 L1540,580 L1510,565 L1500,545 Z"/>

  <!-- Philippines -->
  <path class="map" d="M1620,420 L1640,415 L1655,425 L1658,445 L1650,465 L1635,470 L1620,460 L1615,440 Z"/>

  <!-- New Zealand -->
  <path class="map" d="M1780,760 L1800,755 L1815,770 L1810,790 L1795,795 L1780,785 Z"/>
  <path class="map" d="M1800,800 L1815,795 L1825,810 L1820,825 L1805,830 L1795,820 Z"/>

  <!-- Madagascar -->
  <path class="map" d="M1140,560 L1160,555 L1175,570 L1180,595 L1170,620 L1155,625 L1140,615 L1135,585 Z"/>

  <!-- Caribbean -->
  <path class="map" d="M330,360 L350,358 L365,365 L368,378 L360,385 L345,387 L330,380 Z"/>

  <!-- Central America -->
  <path class="map" d="M280,380 L310,375 L330,385 L340,405 L335,425 L315,435 L295,430 L285,410 L280,395 Z"/>

  <!-- Greenland -->
  <path class="map" d="M480,50 L540,45 L580,60 L600,85 L590,115 L560,135 L520,140 L480,125 L460,100 L470,70 Z"/>

  <!-- Iceland -->
  <path class="map" d="M850,150 L870,148 L885,155 L882,168 L865,172 L850,165 Z"/>
</svg>
